<svg width="30" height="30" viewBox="0 0 30 30" fill="none" xmlns="http://www.w3.org/2000/svg">
<g opacity="0.6">
<path fill-rule="evenodd" clip-rule="evenodd" d="M6.32147 6.32149C6.97234 5.67061 8.02762 5.67061 8.67849 6.32149L23.6785 21.3215C24.3294 21.9724 24.3294 23.0276 23.6785 23.6785C23.0276 24.3294 21.9723 24.3294 21.3215 23.6785L6.32147 8.67851C5.67059 8.02764 5.67059 6.97236 6.32147 6.32149Z" fill="#A3D6FF"/>
<path fill-rule="evenodd" clip-rule="evenodd" d="M23.6785 6.32149C24.3294 6.97236 24.3294 8.02764 23.6785 8.67851L8.67853 23.6785C8.02766 24.3294 6.97238 24.3294 6.32151 23.6785C5.67063 23.0276 5.67063 21.9724 6.32151 21.3215L21.3215 6.32149C21.9724 5.67061 23.0277 5.67061 23.6785 6.32149Z" fill="#A3D6FF"/>
</g>
</svg>
